G04 #@! TF.FileFunction,Copper,L2,Bot,Signal*
%FSLAX46Y46*%
G04 Gerber Fmt 4.6, Leading zero omitted, Abs format (unit mm)*
G04 Created by KiCad (PCBNEW 4.0.7) date 10/06/20 21:35:31*
%MOMM*%
%LPD*%
G01*
G04 APERTURE LIST*
%ADD10C,0.100000*%
%ADD11R,1.700000X1.700000*%
%ADD12O,1.700000X1.700000*%
%ADD13C,2.000000*%
%ADD14C,1.520000*%
%ADD15C,2.700000*%
%ADD16C,0.600000*%
%ADD17C,0.250000*%
%ADD18C,0.350000*%
%ADD19C,0.500000*%
G04 APERTURE END LIST*
D10*
D11*
X61110000Y-34158000D03*
D12*
X61110000Y-36698000D03*
X61110000Y-39238000D03*
X61110000Y-41778000D03*
X61110000Y-44318000D03*
X61110000Y-46858000D03*
X61110000Y-49398000D03*
X61110000Y-51938000D03*
X61110000Y-54478000D03*
X61110000Y-57018000D03*
X61110000Y-59558000D03*
X61110000Y-62098000D03*
X61110000Y-64638000D03*
X61110000Y-67178000D03*
X61110000Y-69718000D03*
X61110000Y-72258000D03*
X61110000Y-74798000D03*
X61110000Y-77338000D03*
X61110000Y-79878000D03*
X61110000Y-82418000D03*
D13*
X68828000Y-87416000D03*
X64328000Y-87416000D03*
X68828000Y-80916000D03*
X64328000Y-80916000D03*
D11*
X76350000Y-34158000D03*
D12*
X76350000Y-36698000D03*
X76350000Y-39238000D03*
X76350000Y-41778000D03*
X76350000Y-44318000D03*
X76350000Y-46858000D03*
X76350000Y-49398000D03*
X76350000Y-51938000D03*
X76350000Y-54478000D03*
X76350000Y-57018000D03*
X76350000Y-59558000D03*
X76350000Y-62098000D03*
X76350000Y-64638000D03*
X76350000Y-67178000D03*
X76350000Y-69718000D03*
X76350000Y-72258000D03*
X76350000Y-74798000D03*
X76350000Y-77338000D03*
X76350000Y-79878000D03*
X76350000Y-82418000D03*
D11*
X72974200Y-33591500D03*
D12*
X70434200Y-33591500D03*
X67894200Y-33591500D03*
X65354200Y-33591500D03*
D14*
X67868000Y-92276000D03*
X70408000Y-92276000D03*
X70408000Y-94276000D03*
X67868000Y-94276000D03*
D15*
X63138000Y-96976000D03*
X75138000Y-96976000D03*
D11*
X72298000Y-37776000D03*
D12*
X69758000Y-37776000D03*
X67218000Y-37776000D03*
D16*
X59698000Y-84226000D03*
X63144400Y-43180000D03*
X72218000Y-43216000D03*
X70231000Y-52006500D03*
X71788000Y-40796000D03*
X74368000Y-41326000D03*
X71798000Y-97776000D03*
X68298000Y-98276000D03*
X65298000Y-98276000D03*
X73798000Y-94276000D03*
X76798000Y-94276000D03*
X78798000Y-93276000D03*
X80298000Y-90776000D03*
X80298000Y-87776000D03*
X80298000Y-84776000D03*
X80298000Y-80776000D03*
X80298000Y-78276000D03*
X80298000Y-75776000D03*
X80298000Y-73276000D03*
X80298000Y-70776000D03*
X80298000Y-68276000D03*
X80298000Y-66276000D03*
X80298000Y-63276000D03*
X80298000Y-60776000D03*
X80298000Y-58276000D03*
X80298000Y-55776000D03*
X80298000Y-50776000D03*
X80298000Y-48276000D03*
X80298000Y-45776000D03*
X79798000Y-42776000D03*
X79798000Y-40276000D03*
X79798000Y-38276000D03*
X79798000Y-35276000D03*
X79798000Y-32776000D03*
X78798000Y-30776000D03*
X76298000Y-30276000D03*
X74298000Y-30276000D03*
X71798000Y-30276000D03*
X69298000Y-30276000D03*
X66298000Y-30776000D03*
X63298000Y-30776000D03*
X60798000Y-31276000D03*
X58798000Y-31276000D03*
X57798000Y-32276000D03*
X57298000Y-35276000D03*
X57298000Y-38776000D03*
X57298000Y-40276000D03*
X57298000Y-42276000D03*
X57798000Y-45776000D03*
X57298000Y-48276000D03*
X56798000Y-50776000D03*
X56798000Y-53276000D03*
X56798000Y-55776000D03*
X57298000Y-58276000D03*
X57298000Y-60776000D03*
X57298000Y-63276000D03*
X56798000Y-65776000D03*
X57298000Y-68276000D03*
X57298000Y-70776000D03*
X57298000Y-73276000D03*
X57298000Y-76276000D03*
X56798000Y-78276000D03*
X57298000Y-81276000D03*
X57298000Y-83776000D03*
X56798000Y-86276000D03*
X56798000Y-89276000D03*
X56798000Y-92776000D03*
X57298000Y-94776000D03*
X58298000Y-95776000D03*
X60298000Y-96276000D03*
X66248000Y-79776000D03*
X66648000Y-75226000D03*
X64098000Y-71176000D03*
X65698000Y-69226000D03*
X61238000Y-89826000D03*
X72038000Y-84616000D03*
X73728000Y-84136000D03*
X71228000Y-64526000D03*
X71238000Y-65866000D03*
X79578000Y-36166000D03*
X63628000Y-37146000D03*
X71338000Y-48626000D03*
X71758000Y-46186000D03*
X68938000Y-49496000D03*
X65138000Y-47346000D03*
X63948000Y-46996000D03*
X67738000Y-48116000D03*
X68755260Y-53378100D03*
X65786000Y-52451000D03*
X67691000Y-55245000D03*
X58039000Y-53340000D03*
X60045600Y-53238400D03*
X64307720Y-52430680D03*
X62898000Y-77926000D03*
X67538000Y-52056000D03*
X71691500Y-59118500D03*
X78079600Y-60198000D03*
X69667120Y-54099460D03*
X70065900Y-54808120D03*
X70627240Y-55471060D03*
X71564500Y-57218580D03*
X72862440Y-57538620D03*
X64516000Y-55372000D03*
X70739000Y-59817000D03*
X64262000Y-56642000D03*
X69977000Y-59309000D03*
X65024000Y-56959500D03*
X69215000Y-59817000D03*
X65405000Y-58674000D03*
X69088000Y-61214000D03*
X65913000Y-59436000D03*
X71297800Y-63550800D03*
X73253600Y-67208400D03*
X72542400Y-67818000D03*
X72034400Y-69596000D03*
X79128000Y-52806000D03*
X72890380Y-55024020D03*
X77216000Y-53187600D03*
X71107300Y-56339740D03*
X63648000Y-73976000D03*
X65722500Y-57848500D03*
D17*
X58877200Y-83386000D02*
X58877200Y-83405200D01*
X58877200Y-83405200D02*
X59698000Y-84226000D01*
X58877200Y-48056800D02*
X58877200Y-83386000D01*
X73215500Y-45096000D02*
X73215500Y-44213500D01*
X59436000Y-42570400D02*
X59436000Y-42316400D01*
X59944000Y-43078400D02*
X59436000Y-42570400D01*
X63042800Y-43078400D02*
X59944000Y-43078400D01*
X63144400Y-43180000D02*
X63042800Y-43078400D01*
X73215500Y-44213500D02*
X72218000Y-43216000D01*
X73215500Y-48069500D02*
X73215500Y-45096000D01*
X73215500Y-45096000D02*
X73215500Y-44894500D01*
X70231000Y-52006500D02*
X70294500Y-51943000D01*
X70294500Y-51943000D02*
X70294500Y-50990500D01*
X70294500Y-50990500D02*
X73215500Y-48069500D01*
X59436000Y-47498000D02*
X58877200Y-48056800D01*
X59436000Y-42316400D02*
X59436000Y-47498000D01*
X59436000Y-38372000D02*
X61110000Y-36698000D01*
X59436000Y-42316400D02*
X59436000Y-38372000D01*
X63138000Y-96976000D02*
X63998000Y-96976000D01*
X63998000Y-96976000D02*
X65298000Y-98276000D01*
X68798000Y-97776000D02*
X71798000Y-97776000D01*
X68298000Y-98276000D02*
X68798000Y-97776000D01*
X76798000Y-94276000D02*
X77798000Y-93276000D01*
X77798000Y-93276000D02*
X78798000Y-93276000D01*
X80298000Y-90776000D02*
X80298000Y-87776000D01*
X80298000Y-84776000D02*
X80298000Y-80776000D01*
X80298000Y-78276000D02*
X80298000Y-75776000D01*
X80298000Y-73276000D02*
X80298000Y-70776000D01*
X80298000Y-68276000D02*
X80298000Y-66276000D01*
X80298000Y-63276000D02*
X80298000Y-60776000D01*
X80298000Y-58276000D02*
X80298000Y-55776000D01*
X80298000Y-50776000D02*
X80298000Y-48276000D01*
X80298000Y-45776000D02*
X79798000Y-45276000D01*
X79798000Y-45276000D02*
X79798000Y-42776000D01*
X79798000Y-40276000D02*
X79798000Y-38276000D01*
X79798000Y-35276000D02*
X79798000Y-32776000D01*
X78798000Y-30776000D02*
X78298000Y-30276000D01*
X78298000Y-30276000D02*
X76298000Y-30276000D01*
X74298000Y-30276000D02*
X71798000Y-30276000D01*
X69298000Y-30276000D02*
X68798000Y-30776000D01*
X68798000Y-30776000D02*
X66298000Y-30776000D01*
X63298000Y-30776000D02*
X62798000Y-31276000D01*
X62798000Y-31276000D02*
X60798000Y-31276000D01*
X58798000Y-31276000D02*
X57798000Y-32276000D01*
X57298000Y-35276000D02*
X57298000Y-38776000D01*
X57298000Y-40276000D02*
X57298000Y-42276000D01*
X57798000Y-45776000D02*
X57298000Y-46276000D01*
X57298000Y-46276000D02*
X57298000Y-48276000D01*
X56798000Y-50776000D02*
X56798000Y-53276000D01*
X56798000Y-55776000D02*
X57298000Y-56276000D01*
X57298000Y-56276000D02*
X57298000Y-58276000D01*
X57298000Y-60776000D02*
X57298000Y-63276000D01*
X56798000Y-65776000D02*
X57298000Y-66276000D01*
X57298000Y-66276000D02*
X57298000Y-68276000D01*
X57298000Y-70776000D02*
X57298000Y-73276000D01*
X57298000Y-76276000D02*
X56798000Y-76776000D01*
X56798000Y-76776000D02*
X56798000Y-78276000D01*
X57298000Y-81276000D02*
X57298000Y-83776000D01*
X56798000Y-86276000D02*
X56798000Y-89276000D01*
X73798000Y-94276000D02*
X70408000Y-94276000D01*
X56798000Y-94276000D02*
X56798000Y-92776000D01*
X57298000Y-94776000D02*
X56798000Y-94276000D01*
X59798000Y-95776000D02*
X58298000Y-95776000D01*
X60298000Y-96276000D02*
X59798000Y-95776000D01*
X71228000Y-64526000D02*
X71228000Y-64486000D01*
X67738000Y-48116000D02*
X67738000Y-48136000D01*
D18*
X75138000Y-96976000D02*
X75487000Y-96976000D01*
D19*
X76218000Y-36830000D02*
X76350000Y-36698000D01*
D17*
X60045600Y-53238400D02*
X60096400Y-53238400D01*
X61110000Y-39238000D02*
X61854000Y-39238000D01*
X61110000Y-74798000D02*
X61270000Y-74798000D01*
X61270000Y-74798000D02*
X62798000Y-76326000D01*
X62798000Y-77826000D02*
X62898000Y-77926000D01*
X62798000Y-76326000D02*
X62798000Y-77826000D01*
X64328000Y-80916000D02*
X64328000Y-80316000D01*
X64328000Y-80316000D02*
X64318000Y-80306000D01*
X59385200Y-51576000D02*
X59385200Y-51328800D01*
X66238000Y-50756000D02*
X67538000Y-52056000D01*
X59958000Y-50756000D02*
X66238000Y-50756000D01*
X59385200Y-51328800D02*
X59958000Y-50756000D01*
X62890400Y-48107600D02*
X59893200Y-48107600D01*
X59893200Y-48107600D02*
X59385200Y-48615600D01*
X59385200Y-48615600D02*
X59385200Y-51576000D01*
X59385200Y-51576000D02*
X59385200Y-73073200D01*
X59385200Y-73073200D02*
X61110000Y-74798000D01*
X61110000Y-74798000D02*
X61110000Y-75161000D01*
X61110000Y-74798000D02*
X61028500Y-74798000D01*
X72974200Y-33591500D02*
X73094200Y-36979800D01*
X73094200Y-36979800D02*
X72298000Y-37776000D01*
X70434200Y-33591500D02*
X70434200Y-33141002D01*
X70434200Y-33141002D02*
X71388000Y-32187202D01*
X74798000Y-35301000D02*
X74930000Y-35433000D01*
X74798000Y-32686000D02*
X74798000Y-35301000D01*
X74299202Y-32187202D02*
X74798000Y-32686000D01*
X71388000Y-32187202D02*
X74299202Y-32187202D01*
X77851000Y-56959500D02*
X77851000Y-57404000D01*
X77470000Y-35433000D02*
X74930000Y-35433000D01*
X77851000Y-35814000D02*
X77470000Y-35433000D01*
X77851000Y-56959500D02*
X77851000Y-35814000D01*
X77851000Y-57404000D02*
X76898500Y-58356500D01*
X76898500Y-58356500D02*
X73406000Y-58356500D01*
X73406000Y-58356500D02*
X72644000Y-59118500D01*
X72644000Y-59118500D02*
X71691500Y-59118500D01*
X70434200Y-33591500D02*
X70434200Y-34099500D01*
X69158500Y-31737200D02*
X67894200Y-33591500D01*
X77248400Y-31737200D02*
X69158500Y-31737200D01*
X77825600Y-32664400D02*
X77248400Y-31737200D01*
X77825600Y-34798000D02*
X77825600Y-32664400D01*
X78366000Y-35468400D02*
X77825600Y-34798000D01*
X78366000Y-59801600D02*
X78366000Y-35468400D01*
X78079600Y-60198000D02*
X78366000Y-59801600D01*
X61110000Y-34158000D02*
X61028500Y-34158000D01*
X73893680Y-48417480D02*
X73893680Y-48534320D01*
X73893680Y-48534320D02*
X73563480Y-49042320D01*
X71087473Y-52223207D02*
X70779537Y-52687174D01*
X71757540Y-51401980D02*
X71087473Y-52223207D01*
X73563480Y-49042320D02*
X71757540Y-51401980D01*
X69667120Y-54099460D02*
X70672857Y-52687174D01*
X70672857Y-52687174D02*
X70779537Y-52687174D01*
X74000360Y-43980320D02*
X76350000Y-41778000D01*
X73868280Y-45328840D02*
X74000360Y-43980320D01*
X73893680Y-45450760D02*
X73868280Y-45328840D01*
X73893680Y-48417480D02*
X73893680Y-45450760D01*
X76350000Y-41778000D02*
X75824000Y-41778000D01*
X76350000Y-41778000D02*
X76350000Y-42095280D01*
X74366120Y-49606200D02*
X74366120Y-45354240D01*
X74366120Y-45354240D02*
X75564920Y-44318000D01*
X75564920Y-44318000D02*
X76350000Y-44318000D01*
X70695820Y-53710840D02*
X70695820Y-53634640D01*
X72414427Y-51316830D02*
X74366120Y-49606200D01*
X71329180Y-52856535D02*
X72414427Y-51316830D01*
X70695820Y-53634640D02*
X71329180Y-52856535D01*
X70665340Y-53710840D02*
X70695820Y-53710840D01*
X70065900Y-54808120D02*
X70665340Y-53710840D01*
X70627240Y-55471060D02*
X70901560Y-55138320D01*
X70901560Y-55138320D02*
X71722527Y-53235399D01*
X74960480Y-47937640D02*
X76350000Y-46858000D01*
X74960480Y-49865280D02*
X74960480Y-47937640D01*
X72981820Y-51595020D02*
X74960480Y-49865280D01*
X71722527Y-53235399D02*
X72981820Y-51595020D01*
X76078000Y-46858000D02*
X76350000Y-46858000D01*
X76350000Y-51938000D02*
X74660680Y-51938000D01*
X71739760Y-56448960D02*
X71564500Y-57218580D01*
X72148426Y-55285036D02*
X71739760Y-56448960D01*
X72204580Y-54805580D02*
X72148426Y-55285036D01*
X72351900Y-54658260D02*
X72204580Y-54805580D01*
X72364600Y-54373780D02*
X72351900Y-54658260D01*
X73140751Y-53279657D02*
X72364600Y-54373780D01*
X73432877Y-53021794D02*
X73140751Y-53279657D01*
X74660680Y-51938000D02*
X73432877Y-53021794D01*
X73380820Y-57447180D02*
X76350000Y-54478000D01*
X72953880Y-57447180D02*
X73380820Y-57447180D01*
X72862440Y-57538620D02*
X72953880Y-57447180D01*
X76078000Y-54478000D02*
X76350000Y-54478000D01*
X59880500Y-58074500D02*
X61110000Y-59558000D01*
X59880500Y-56515000D02*
X59880500Y-58074500D01*
X60198000Y-56070500D02*
X59880500Y-56515000D01*
X60515500Y-55880000D02*
X60198000Y-56070500D01*
X60706000Y-55753000D02*
X60515500Y-55880000D01*
X61976000Y-55753000D02*
X60706000Y-55753000D01*
X62357000Y-55372000D02*
X61976000Y-55753000D01*
X64516000Y-55372000D02*
X62357000Y-55372000D01*
X74607500Y-62098000D02*
X76350000Y-62098000D01*
X73279000Y-60769500D02*
X74607500Y-62098000D01*
X73279000Y-60325000D02*
X73279000Y-60769500D01*
X72771000Y-59817000D02*
X73279000Y-60325000D01*
X70739000Y-59817000D02*
X72771000Y-59817000D01*
X62357000Y-62357000D02*
X62357000Y-62293500D01*
X62357000Y-62293500D02*
X63373000Y-61277500D01*
X62357000Y-63391000D02*
X61110000Y-64638000D01*
X62357000Y-62357000D02*
X62357000Y-63391000D01*
X64008000Y-60642500D02*
X63373000Y-61277500D01*
X64008000Y-56896000D02*
X64008000Y-60642500D01*
X64262000Y-56642000D02*
X64008000Y-56896000D01*
X74259500Y-62547500D02*
X76350000Y-64638000D01*
X74231500Y-62547500D02*
X74259500Y-62547500D01*
X72326500Y-60642500D02*
X74231500Y-62547500D01*
X70104000Y-60642500D02*
X72326500Y-60642500D01*
X69913500Y-60452000D02*
X70104000Y-60642500D01*
X69977000Y-59309000D02*
X69913500Y-60452000D01*
X76004500Y-64638000D02*
X76350000Y-64638000D01*
X62865000Y-65423000D02*
X61110000Y-67178000D01*
X62865000Y-62484000D02*
X62865000Y-65423000D01*
X64516000Y-60833000D02*
X62865000Y-62484000D01*
X64516000Y-57467500D02*
X64516000Y-60833000D01*
X65024000Y-56959500D02*
X64516000Y-57467500D01*
X69215000Y-59817000D02*
X69469000Y-60642500D01*
X72263000Y-61341000D02*
X74993500Y-64071500D01*
X74993500Y-64071500D02*
X74993500Y-65821500D01*
X76350000Y-67178000D02*
X74993500Y-65821500D01*
X72136000Y-61214000D02*
X72263000Y-61341000D01*
X69913500Y-61214000D02*
X72136000Y-61214000D01*
X69469000Y-60642500D02*
X69913500Y-61214000D01*
X65405000Y-58674000D02*
X65024000Y-59245500D01*
X65024000Y-59245500D02*
X65024000Y-60961398D01*
X65024000Y-60961398D02*
X63436500Y-62548898D01*
X63436500Y-62548898D02*
X63398000Y-65826000D01*
X63398000Y-65826000D02*
X62611000Y-66611500D01*
X62611000Y-66611500D02*
X62611000Y-68217000D01*
X62611000Y-68217000D02*
X61110000Y-69718000D01*
X69088000Y-61214000D02*
X69088000Y-61468000D01*
X69088000Y-61468000D02*
X69723000Y-61785500D01*
X76350000Y-69718000D02*
X74485500Y-67853500D01*
X74410237Y-64235260D02*
X74485500Y-67853500D01*
X71882000Y-61785500D02*
X74410237Y-64235260D01*
X69723000Y-61785500D02*
X71882000Y-61785500D01*
X69088000Y-61214000D02*
X69151500Y-61277500D01*
X65913000Y-59436000D02*
X65913000Y-60708796D01*
X65913000Y-60708796D02*
X65474002Y-61147794D01*
X65474002Y-61147794D02*
X63944500Y-62677296D01*
X62357000Y-71011000D02*
X61110000Y-72258000D01*
X62357000Y-69469000D02*
X62357000Y-71011000D01*
X63119000Y-68707000D02*
X62357000Y-69469000D01*
X63119000Y-66992500D02*
X63119000Y-68707000D01*
X63944500Y-66167000D02*
X63119000Y-66992500D01*
X63944500Y-62677296D02*
X63944500Y-66167000D01*
X73888600Y-69796600D02*
X76350000Y-72258000D01*
X73888600Y-64541400D02*
X73888600Y-69796600D01*
X72923400Y-63576200D02*
X73888600Y-64541400D01*
X71323200Y-63576200D02*
X72923400Y-63576200D01*
X71297800Y-63550800D02*
X71323200Y-63576200D01*
X73202800Y-67259200D02*
X73202800Y-70256400D01*
X73253600Y-67208400D02*
X73202800Y-67259200D01*
X73202800Y-70256400D02*
X74930000Y-71983600D01*
X74930000Y-71983600D02*
X74930000Y-73378000D01*
X74930000Y-73378000D02*
X76350000Y-74798000D01*
X72694800Y-67970400D02*
X72694800Y-70713600D01*
X72542400Y-67818000D02*
X72694800Y-67970400D01*
X72694800Y-70713600D02*
X74422000Y-72440800D01*
X74422000Y-72440800D02*
X74422000Y-75410000D01*
X74422000Y-75410000D02*
X76350000Y-77338000D01*
X72136000Y-69697600D02*
X72136000Y-70866000D01*
X72034400Y-69596000D02*
X72136000Y-69697600D01*
X74879200Y-80947200D02*
X76350000Y-82418000D01*
X74879200Y-77266800D02*
X74879200Y-80947200D01*
X73812400Y-76200000D02*
X74879200Y-77266800D01*
X73812400Y-72542400D02*
X73812400Y-76200000D01*
X72136000Y-70866000D02*
X73812400Y-72542400D01*
X69758000Y-37776000D02*
X69758000Y-37526000D01*
X69758000Y-37526000D02*
X67898000Y-35016000D01*
X67898000Y-35016000D02*
X67158000Y-35016000D01*
X67158000Y-35016000D02*
X66648000Y-34506000D01*
X66648000Y-34506000D02*
X66648000Y-32346000D01*
X66648000Y-32346000D02*
X68028000Y-31276000D01*
X68028000Y-31276000D02*
X77658000Y-31276000D01*
X77658000Y-31276000D02*
X78718000Y-32306000D01*
X78718000Y-32306000D02*
X78718000Y-33816000D01*
X78718000Y-33816000D02*
X78868000Y-35106000D01*
X78868000Y-35106000D02*
X78868000Y-52306000D01*
X78868000Y-52306000D02*
X79128000Y-52806000D01*
X77139800Y-53263800D02*
X77216000Y-53187600D01*
X74665840Y-53263800D02*
X77139800Y-53263800D01*
X72890380Y-55024020D02*
X74665840Y-53263800D01*
X73168447Y-52403706D02*
X76350000Y-49398000D01*
X72129470Y-53725849D02*
X73168447Y-52403706D01*
X71511976Y-55228116D02*
X72129470Y-53725849D01*
X71097140Y-56329580D02*
X71511976Y-55228116D01*
X71107300Y-56339740D02*
X71097140Y-56329580D01*
X76350000Y-49398000D02*
X76078000Y-49398000D01*
X62611000Y-73376000D02*
X62611000Y-73689000D01*
X62898000Y-73976000D02*
X63648000Y-73976000D01*
X62611000Y-73689000D02*
X62898000Y-73976000D01*
X64516000Y-66363002D02*
X64510498Y-66363002D01*
X62611000Y-71691500D02*
X62611000Y-73376000D01*
X62807002Y-71495498D02*
X62611000Y-71691500D01*
X62807002Y-69717498D02*
X62807002Y-71495498D01*
X63627000Y-68897500D02*
X62807002Y-69717498D01*
X63627000Y-67246500D02*
X63627000Y-68897500D01*
X64510498Y-66363002D02*
X63627000Y-67246500D01*
X64516000Y-66363002D02*
X64516000Y-66103500D01*
X64516000Y-62865000D02*
X64516000Y-66363002D01*
X66611500Y-60769500D02*
X64516000Y-62865000D01*
X66611500Y-58737500D02*
X66611500Y-60769500D01*
X65722500Y-57848500D02*
X66611500Y-58737500D01*
D19*
G36*
X80473000Y-98451000D02*
X76695640Y-98451000D01*
X77538205Y-97608435D01*
X77223512Y-97293742D01*
X77279748Y-96796008D01*
X77185597Y-96322679D01*
X76916294Y-96152301D01*
X76092594Y-96976000D01*
X76513323Y-97396729D01*
X75558729Y-98351323D01*
X75138000Y-97930594D01*
X74717271Y-98351323D01*
X73762677Y-97396729D01*
X74183406Y-96976000D01*
X73359706Y-96152301D01*
X73090403Y-96322679D01*
X72996252Y-97155992D01*
X73028436Y-97317794D01*
X72737795Y-97608435D01*
X73580360Y-98451000D01*
X64695640Y-98451000D01*
X65538205Y-97608435D01*
X65223512Y-97293742D01*
X65279748Y-96796008D01*
X65185597Y-96322679D01*
X64916294Y-96152301D01*
X64092594Y-96976000D01*
X64513323Y-97396729D01*
X63558729Y-98351323D01*
X63138000Y-97930594D01*
X62717271Y-98351323D01*
X61762677Y-97396729D01*
X62183406Y-96976000D01*
X61359706Y-96152301D01*
X61090403Y-96322679D01*
X60996252Y-97155992D01*
X61028436Y-97317794D01*
X60737795Y-97608435D01*
X61580360Y-98451000D01*
X56623000Y-98451000D01*
X56623000Y-95197706D01*
X62314301Y-95197706D01*
X63138000Y-96021406D01*
X63961699Y-95197706D01*
X63791321Y-94928403D01*
X62958008Y-94834252D01*
X62484679Y-94928403D01*
X62314301Y-95197706D01*
X56623000Y-95197706D01*
X56623000Y-92575040D01*
X66357738Y-92575040D01*
X66587138Y-93130229D01*
X66732536Y-93275882D01*
X66588630Y-93419537D01*
X66358262Y-93974325D01*
X66357738Y-94575040D01*
X66587138Y-95130229D01*
X67011537Y-95555370D01*
X67566325Y-95785738D01*
X68167040Y-95786262D01*
X68722229Y-95556862D01*
X68812481Y-95466767D01*
X69754634Y-95466767D01*
X69833534Y-95713179D01*
X70427247Y-95823619D01*
X70982466Y-95713179D01*
X71061366Y-95466767D01*
X70792305Y-95197706D01*
X74314301Y-95197706D01*
X75138000Y-96021406D01*
X75961699Y-95197706D01*
X75791321Y-94928403D01*
X74958008Y-94834252D01*
X74484679Y-94928403D01*
X74314301Y-95197706D01*
X70792305Y-95197706D01*
X70408000Y-94813401D01*
X69754634Y-95466767D01*
X68812481Y-95466767D01*
X69147370Y-95132463D01*
X69241978Y-94904621D01*
X69870599Y-94276000D01*
X69601899Y-94007300D01*
X69906454Y-93702744D01*
X70106325Y-93785738D01*
X70707040Y-93786262D01*
X70909436Y-93702634D01*
X71214102Y-94007300D01*
X70945401Y-94276000D01*
X71598767Y-94929366D01*
X71845179Y-94850466D01*
X71900911Y-94550859D01*
X72382839Y-94068931D01*
X71566765Y-93252857D01*
X71687370Y-93132463D01*
X71917738Y-92577675D01*
X71918262Y-91976960D01*
X71688862Y-91421771D01*
X71264463Y-90996630D01*
X70709675Y-90766262D01*
X70108960Y-90765738D01*
X69553771Y-90995138D01*
X69137647Y-91410536D01*
X68724463Y-90996630D01*
X68169675Y-90766262D01*
X67568960Y-90765738D01*
X67013771Y-90995138D01*
X66588630Y-91419537D01*
X66358262Y-91974325D01*
X66357738Y-92575040D01*
X56623000Y-92575040D01*
X56623000Y-87762569D01*
X62577696Y-87762569D01*
X62843557Y-88406001D01*
X63335410Y-88898713D01*
X63978376Y-89165696D01*
X64674569Y-89166304D01*
X65318001Y-88900443D01*
X65372086Y-88846452D01*
X68104655Y-88846452D01*
X68220759Y-89102448D01*
X68912358Y-89206455D01*
X69435241Y-89102448D01*
X69551345Y-88846452D01*
X68828000Y-88123107D01*
X68104655Y-88846452D01*
X65372086Y-88846452D01*
X65810713Y-88408590D01*
X66077696Y-87765624D01*
X66077927Y-87500358D01*
X67037545Y-87500358D01*
X67141552Y-88023241D01*
X67397548Y-88139345D01*
X68120893Y-87416000D01*
X69535107Y-87416000D01*
X70258452Y-88139345D01*
X70514448Y-88023241D01*
X70618455Y-87331642D01*
X70514448Y-86808759D01*
X70258452Y-86692655D01*
X69535107Y-87416000D01*
X68120893Y-87416000D01*
X67397548Y-86692655D01*
X67141552Y-86808759D01*
X67037545Y-87500358D01*
X66077927Y-87500358D01*
X66078304Y-87069431D01*
X65812443Y-86425999D01*
X65372760Y-85985548D01*
X68104655Y-85985548D01*
X68828000Y-86708893D01*
X69551345Y-85985548D01*
X69435241Y-85729552D01*
X68743642Y-85625545D01*
X68220759Y-85729552D01*
X68104655Y-85985548D01*
X65372760Y-85985548D01*
X65320590Y-85933287D01*
X64677624Y-85666304D01*
X63981431Y-85665696D01*
X63337999Y-85931557D01*
X62845287Y-86423410D01*
X62578304Y-87066376D01*
X62577696Y-87762569D01*
X56623000Y-87762569D01*
X56623000Y-48056800D01*
X58002200Y-48056800D01*
X58002200Y-83405200D01*
X58047004Y-83630446D01*
X58068805Y-83740048D01*
X58258482Y-84023918D01*
X58647836Y-84413272D01*
X58647818Y-84433942D01*
X58807334Y-84820000D01*
X59102446Y-85115628D01*
X59488226Y-85275818D01*
X59905942Y-85276182D01*
X60292000Y-85116666D01*
X60587628Y-84821554D01*
X60747818Y-84435774D01*
X60748182Y-84018058D01*
X60654980Y-83792493D01*
X60685000Y-83779350D01*
X60685000Y-82843000D01*
X61535000Y-82843000D01*
X61535000Y-83779350D01*
X61772374Y-83883272D01*
X62282689Y-83518255D01*
X62575241Y-83080369D01*
X62463336Y-82843000D01*
X61535000Y-82843000D01*
X60685000Y-82843000D01*
X60260000Y-82843000D01*
X60260000Y-81993000D01*
X60685000Y-81993000D01*
X60685000Y-80303000D01*
X61535000Y-80303000D01*
X61535000Y-81993000D01*
X62463336Y-81993000D01*
X62575241Y-81755631D01*
X62282689Y-81317745D01*
X62205550Y-81262569D01*
X62577696Y-81262569D01*
X62843557Y-81906001D01*
X63335410Y-82398713D01*
X63978376Y-82665696D01*
X64674569Y-82666304D01*
X65318001Y-82400443D01*
X65372086Y-82346452D01*
X68104655Y-82346452D01*
X68220759Y-82602448D01*
X68912358Y-82706455D01*
X69435241Y-82602448D01*
X69551345Y-82346452D01*
X68828000Y-81623107D01*
X68104655Y-82346452D01*
X65372086Y-82346452D01*
X65810713Y-81908590D01*
X66077696Y-81265624D01*
X66077927Y-81000358D01*
X67037545Y-81000358D01*
X67141552Y-81523241D01*
X67397548Y-81639345D01*
X68120893Y-80916000D01*
X69535107Y-80916000D01*
X70258452Y-81639345D01*
X70514448Y-81523241D01*
X70618455Y-80831642D01*
X70514448Y-80308759D01*
X70258452Y-80192655D01*
X69535107Y-80916000D01*
X68120893Y-80916000D01*
X67397548Y-80192655D01*
X67141552Y-80308759D01*
X67037545Y-81000358D01*
X66077927Y-81000358D01*
X66078304Y-80569431D01*
X65812443Y-79925999D01*
X65372760Y-79485548D01*
X68104655Y-79485548D01*
X68828000Y-80208893D01*
X69551345Y-79485548D01*
X69435241Y-79229552D01*
X68743642Y-79125545D01*
X68220759Y-79229552D01*
X68104655Y-79485548D01*
X65372760Y-79485548D01*
X65320590Y-79433287D01*
X64677624Y-79166304D01*
X63981431Y-79165696D01*
X63337999Y-79431557D01*
X62845287Y-79923410D01*
X62578304Y-80566376D01*
X62577696Y-81262569D01*
X62205550Y-81262569D01*
X62045376Y-81148000D01*
X62282689Y-80978255D01*
X62575241Y-80540369D01*
X62463336Y-80303000D01*
X61535000Y-80303000D01*
X60685000Y-80303000D01*
X60260000Y-80303000D01*
X60260000Y-79453000D01*
X60685000Y-79453000D01*
X60685000Y-79028000D01*
X61535000Y-79028000D01*
X61535000Y-79453000D01*
X62463336Y-79453000D01*
X62575241Y-79215631D01*
X62360002Y-78893466D01*
X62360002Y-78839528D01*
X62688226Y-78975818D01*
X63105942Y-78976182D01*
X63492000Y-78816666D01*
X63787628Y-78521554D01*
X63947818Y-78135774D01*
X63948182Y-77718058D01*
X63788666Y-77332000D01*
X63673000Y-77216132D01*
X63673000Y-76326000D01*
X63606395Y-75991152D01*
X63606395Y-75991151D01*
X63416718Y-75707281D01*
X62702538Y-74993101D01*
X62737167Y-74819009D01*
X62898000Y-74851000D01*
X63037844Y-74851000D01*
X63052446Y-74865628D01*
X63438226Y-75025818D01*
X63855942Y-75026182D01*
X64242000Y-74866666D01*
X64537628Y-74571554D01*
X64697818Y-74185774D01*
X64698182Y-73768058D01*
X64538666Y-73382000D01*
X64243554Y-73086372D01*
X63857774Y-72926182D01*
X63486000Y-72925858D01*
X63486000Y-72024002D01*
X63615397Y-71830346D01*
X63682002Y-71495498D01*
X63682002Y-70079934D01*
X64245718Y-69516219D01*
X64435395Y-69232349D01*
X64461863Y-69099282D01*
X64502000Y-68897500D01*
X64502000Y-67608936D01*
X65118140Y-66992797D01*
X65134718Y-66981720D01*
X65324395Y-66697850D01*
X65391000Y-66363002D01*
X65391000Y-63227436D01*
X67230219Y-61388218D01*
X67419895Y-61104348D01*
X67486500Y-60769500D01*
X67486500Y-58737500D01*
X67419895Y-58402652D01*
X67389057Y-58356500D01*
X67230219Y-58118782D01*
X66772664Y-57661228D01*
X66772682Y-57640558D01*
X66613166Y-57254500D01*
X66318054Y-56958872D01*
X66074090Y-56857569D01*
X66074182Y-56751558D01*
X65914666Y-56365500D01*
X65619554Y-56069872D01*
X65396086Y-55977080D01*
X65405628Y-55967554D01*
X65565818Y-55581774D01*
X65566182Y-55164058D01*
X65406666Y-54778000D01*
X65111554Y-54482372D01*
X64725774Y-54322182D01*
X64308058Y-54321818D01*
X63922000Y-54481334D01*
X63906307Y-54497000D01*
X62737567Y-54497000D01*
X62741346Y-54478000D01*
X62619553Y-53865707D01*
X62272717Y-53346629D01*
X62065244Y-53208000D01*
X62272717Y-53069371D01*
X62619553Y-52550293D01*
X62741346Y-51938000D01*
X62680280Y-51631000D01*
X65875564Y-51631000D01*
X66487836Y-52243273D01*
X66487818Y-52263942D01*
X66647334Y-52650000D01*
X66942446Y-52945628D01*
X67328226Y-53105818D01*
X67745942Y-53106182D01*
X68132000Y-52946666D01*
X68427628Y-52651554D01*
X68587818Y-52265774D01*
X68588182Y-51848058D01*
X68428666Y-51462000D01*
X68133554Y-51166372D01*
X67747774Y-51006182D01*
X67725599Y-51006163D01*
X66856718Y-50137282D01*
X66572848Y-49947605D01*
X66238000Y-49881000D01*
X62645271Y-49881000D01*
X62741346Y-49398000D01*
X62658718Y-48982600D01*
X62890400Y-48982600D01*
X63225248Y-48915995D01*
X63509118Y-48726318D01*
X63698795Y-48442448D01*
X63765400Y-48107600D01*
X63698795Y-47772752D01*
X63509118Y-47488882D01*
X63225248Y-47299205D01*
X62890400Y-47232600D01*
X62666833Y-47232600D01*
X62741346Y-46858000D01*
X62619553Y-46245707D01*
X62272717Y-45726629D01*
X62065244Y-45588000D01*
X62272717Y-45449371D01*
X62619553Y-44930293D01*
X62741346Y-44318000D01*
X62704825Y-44134396D01*
X62934626Y-44229818D01*
X63352342Y-44230182D01*
X63738400Y-44070666D01*
X64034028Y-43775554D01*
X64194218Y-43389774D01*
X64194582Y-42972058D01*
X64035066Y-42586000D01*
X63739954Y-42290372D01*
X63354174Y-42130182D01*
X62936458Y-42129818D01*
X62758376Y-42203400D01*
X62656728Y-42203400D01*
X62741346Y-41778000D01*
X62619553Y-41165707D01*
X62272717Y-40646629D01*
X62065244Y-40508000D01*
X62272717Y-40369371D01*
X62619553Y-39850293D01*
X62741346Y-39238000D01*
X62619553Y-38625707D01*
X62494382Y-38438374D01*
X65752728Y-38438374D01*
X66117745Y-38948689D01*
X66555631Y-39241241D01*
X66793000Y-39129336D01*
X66793000Y-38201000D01*
X65856650Y-38201000D01*
X65752728Y-38438374D01*
X62494382Y-38438374D01*
X62272717Y-38106629D01*
X62065244Y-37968000D01*
X62272717Y-37829371D01*
X62619553Y-37310293D01*
X62658672Y-37113626D01*
X65752728Y-37113626D01*
X65856650Y-37351000D01*
X66793000Y-37351000D01*
X66793000Y-36422664D01*
X66555631Y-36310759D01*
X66117745Y-36603311D01*
X65752728Y-37113626D01*
X62658672Y-37113626D01*
X62741346Y-36698000D01*
X62619553Y-36085707D01*
X62334109Y-35658509D01*
X62493198Y-35556138D01*
X62664446Y-35305508D01*
X62724693Y-35008000D01*
X62724693Y-34253874D01*
X63888928Y-34253874D01*
X64253945Y-34764189D01*
X64691831Y-35056741D01*
X64929200Y-34944836D01*
X64929200Y-34016500D01*
X63992850Y-34016500D01*
X63888928Y-34253874D01*
X62724693Y-34253874D01*
X62724693Y-33308000D01*
X62672396Y-33030067D01*
X62607443Y-32929126D01*
X63888928Y-32929126D01*
X63992850Y-33166500D01*
X64929200Y-33166500D01*
X64929200Y-32346000D01*
X65773000Y-32346000D01*
X65773000Y-34506000D01*
X65779200Y-34537170D01*
X65779200Y-34944836D01*
X65968820Y-35034230D01*
X66029282Y-35124718D01*
X66539282Y-35634718D01*
X66823152Y-35824395D01*
X67158000Y-35891000D01*
X67457345Y-35891000D01*
X67797390Y-36349878D01*
X67643000Y-36422664D01*
X67643000Y-37351000D01*
X68068000Y-37351000D01*
X68068000Y-38201000D01*
X67643000Y-38201000D01*
X67643000Y-39129336D01*
X67880369Y-39241241D01*
X68202534Y-39026002D01*
X68757261Y-39026002D01*
X69145707Y-39285553D01*
X69758000Y-39407346D01*
X70370293Y-39285553D01*
X70797491Y-39000109D01*
X70899862Y-39159198D01*
X71150492Y-39330446D01*
X71448000Y-39390693D01*
X73148000Y-39390693D01*
X73425933Y-39338396D01*
X73681198Y-39174138D01*
X73852446Y-38923508D01*
X73912693Y-38626000D01*
X73912693Y-37287843D01*
X73913940Y-37285826D01*
X73938862Y-37132321D01*
X73969200Y-36979800D01*
X73966130Y-36964365D01*
X73968652Y-36948830D01*
X73906387Y-35190728D01*
X73923000Y-35187602D01*
X73923000Y-35301000D01*
X73989380Y-35634718D01*
X73989605Y-35635848D01*
X74179282Y-35919718D01*
X74311281Y-36051718D01*
X74490405Y-36171405D01*
X74595152Y-36241395D01*
X74930000Y-36308000D01*
X76976000Y-36308000D01*
X76976000Y-37123000D01*
X76775000Y-37123000D01*
X76775000Y-37548000D01*
X75925000Y-37548000D01*
X75925000Y-37123000D01*
X74996664Y-37123000D01*
X74884759Y-37360369D01*
X75099998Y-37682534D01*
X75099998Y-38237261D01*
X74840447Y-38625707D01*
X74718654Y-39238000D01*
X74840447Y-39850293D01*
X75187283Y-40369371D01*
X75394756Y-40508000D01*
X75187283Y-40646629D01*
X74840447Y-41165707D01*
X74718654Y-41778000D01*
X74773945Y-42055967D01*
X73494566Y-43255130D01*
X73268164Y-43028728D01*
X73268182Y-43008058D01*
X73108666Y-42622000D01*
X72813554Y-42326372D01*
X72427774Y-42166182D01*
X72010058Y-42165818D01*
X71624000Y-42325334D01*
X71328372Y-42620446D01*
X71168182Y-43006226D01*
X71167818Y-43423942D01*
X71327334Y-43810000D01*
X71622446Y-44105628D01*
X72008226Y-44265818D01*
X72030401Y-44265837D01*
X72340500Y-44575936D01*
X72340500Y-47707063D01*
X69675782Y-50371782D01*
X69486105Y-50655652D01*
X69419500Y-50990500D01*
X69419500Y-51332954D01*
X69341372Y-51410946D01*
X69181182Y-51796726D01*
X69180818Y-52214442D01*
X69340334Y-52600500D01*
X69527128Y-52787621D01*
X69291436Y-53118588D01*
X69073120Y-53208794D01*
X68777492Y-53503906D01*
X68617302Y-53889686D01*
X68616938Y-54307402D01*
X68776454Y-54693460D01*
X69015790Y-54933215D01*
X69015718Y-55016062D01*
X69175234Y-55402120D01*
X69470346Y-55697748D01*
X69608509Y-55755118D01*
X69736574Y-56065060D01*
X70031686Y-56360688D01*
X70057272Y-56371312D01*
X70057118Y-56547682D01*
X70216634Y-56933740D01*
X70511746Y-57229368D01*
X70514489Y-57230507D01*
X70514318Y-57426522D01*
X70673834Y-57812580D01*
X70968946Y-58108208D01*
X71177465Y-58194793D01*
X71097500Y-58227834D01*
X70801872Y-58522946D01*
X70764879Y-58612034D01*
X70572554Y-58419372D01*
X70186774Y-58259182D01*
X69769058Y-58258818D01*
X69383000Y-58418334D01*
X69087372Y-58713446D01*
X69065189Y-58766869D01*
X69007058Y-58766818D01*
X68621000Y-58926334D01*
X68325372Y-59221446D01*
X68165182Y-59607226D01*
X68164818Y-60024942D01*
X68324334Y-60411000D01*
X68365186Y-60451923D01*
X68198372Y-60618446D01*
X68038182Y-61004226D01*
X68037818Y-61421942D01*
X68197334Y-61808000D01*
X68422651Y-62033711D01*
X68426978Y-62041302D01*
X68441410Y-62052502D01*
X68456562Y-62067681D01*
X68469282Y-62086718D01*
X68488152Y-62099327D01*
X68492446Y-62103628D01*
X68498108Y-62105979D01*
X68585888Y-62164632D01*
X68696688Y-62250624D01*
X69331688Y-62568124D01*
X69362011Y-62576428D01*
X69388152Y-62593895D01*
X69525704Y-62621256D01*
X69660972Y-62658299D01*
X69692165Y-62654367D01*
X69723000Y-62660500D01*
X70703433Y-62660500D01*
X70408172Y-62955246D01*
X70247982Y-63341026D01*
X70247618Y-63758742D01*
X70407134Y-64144800D01*
X70702246Y-64440428D01*
X71088026Y-64600618D01*
X71505742Y-64600982D01*
X71868242Y-64451200D01*
X72560964Y-64451200D01*
X73013600Y-64903836D01*
X73013600Y-66171464D01*
X72659600Y-66317734D01*
X72363972Y-66612846D01*
X72292407Y-66785193D01*
X71948400Y-66927334D01*
X71652772Y-67222446D01*
X71492582Y-67608226D01*
X71492218Y-68025942D01*
X71651734Y-68412000D01*
X71797332Y-68557853D01*
X71440400Y-68705334D01*
X71144772Y-69000446D01*
X70984582Y-69386226D01*
X70984218Y-69803942D01*
X71143734Y-70190000D01*
X71261000Y-70307471D01*
X71261000Y-70866000D01*
X71309256Y-71108600D01*
X71327605Y-71200848D01*
X71517282Y-71484718D01*
X72937400Y-72904837D01*
X72937400Y-76200000D01*
X72988800Y-76458405D01*
X73004005Y-76534848D01*
X73193682Y-76818718D01*
X74004200Y-77629236D01*
X74004200Y-80947200D01*
X74062312Y-81239350D01*
X74070805Y-81282048D01*
X74260482Y-81565918D01*
X74784008Y-82089444D01*
X74718654Y-82418000D01*
X74840447Y-83030293D01*
X75187283Y-83549371D01*
X75706361Y-83896207D01*
X76318654Y-84018000D01*
X76381346Y-84018000D01*
X76993639Y-83896207D01*
X77512717Y-83549371D01*
X77859553Y-83030293D01*
X77981346Y-82418000D01*
X77859553Y-81805707D01*
X77512717Y-81286629D01*
X77305244Y-81148000D01*
X77512717Y-81009371D01*
X77859553Y-80490293D01*
X77981346Y-79878000D01*
X77859553Y-79265707D01*
X77512717Y-78746629D01*
X77305244Y-78608000D01*
X77512717Y-78469371D01*
X77859553Y-77950293D01*
X77981346Y-77338000D01*
X77859553Y-76725707D01*
X77512717Y-76206629D01*
X77305244Y-76068000D01*
X77512717Y-75929371D01*
X77859553Y-75410293D01*
X77981346Y-74798000D01*
X77859553Y-74185707D01*
X77512717Y-73666629D01*
X77305244Y-73528000D01*
X77512717Y-73389371D01*
X77859553Y-72870293D01*
X77981346Y-72258000D01*
X77859553Y-71645707D01*
X77512717Y-71126629D01*
X77305244Y-70988000D01*
X77512717Y-70849371D01*
X77859553Y-70330293D01*
X77981346Y-69718000D01*
X77859553Y-69105707D01*
X77512717Y-68586629D01*
X77305244Y-68448000D01*
X77512717Y-68309371D01*
X77859553Y-67790293D01*
X77981346Y-67178000D01*
X77859553Y-66565707D01*
X77512717Y-66046629D01*
X77305244Y-65908000D01*
X77512717Y-65769371D01*
X77859553Y-65250293D01*
X77981346Y-64638000D01*
X77859553Y-64025707D01*
X77512717Y-63506629D01*
X77305244Y-63368000D01*
X77512717Y-63229371D01*
X77859553Y-62710293D01*
X77981346Y-62098000D01*
X77859553Y-61485707D01*
X77635620Y-61150567D01*
X77869826Y-61247818D01*
X78287542Y-61248182D01*
X78673600Y-61088666D01*
X78969228Y-60793554D01*
X79129418Y-60407774D01*
X79129596Y-60203494D01*
X79174395Y-60136448D01*
X79188107Y-60067514D01*
X79217362Y-60003610D01*
X79221097Y-59901660D01*
X79241000Y-59801600D01*
X79241000Y-53856099D01*
X79335942Y-53856182D01*
X79722000Y-53696666D01*
X80017628Y-53401554D01*
X80177818Y-53015774D01*
X80178182Y-52598058D01*
X80018666Y-52212000D01*
X79743000Y-51935852D01*
X79743000Y-35106000D01*
X79733030Y-35055877D01*
X79737144Y-35004937D01*
X79593000Y-33765299D01*
X79593000Y-32306000D01*
X79591752Y-32299727D01*
X79592909Y-32293441D01*
X79558505Y-32132582D01*
X79526395Y-31971152D01*
X79522842Y-31965835D01*
X79521505Y-31959583D01*
X79428131Y-31824091D01*
X79336718Y-31687282D01*
X79331403Y-31683730D01*
X79327774Y-31678465D01*
X78267774Y-30648465D01*
X78129643Y-30559009D01*
X77992848Y-30467605D01*
X77986578Y-30466358D01*
X77981211Y-30462882D01*
X77819402Y-30433105D01*
X77658000Y-30401000D01*
X68028000Y-30401000D01*
X67913610Y-30423753D01*
X67797278Y-30431967D01*
X67747609Y-30456773D01*
X67693152Y-30467605D01*
X67596181Y-30532399D01*
X67491843Y-30584508D01*
X66111843Y-31654508D01*
X66075444Y-31696437D01*
X66029282Y-31727282D01*
X65964490Y-31824249D01*
X65888033Y-31912323D01*
X65870451Y-31964987D01*
X65839605Y-32011152D01*
X65816852Y-32125542D01*
X65779922Y-32236162D01*
X65780036Y-32237770D01*
X65779200Y-32238164D01*
X65779200Y-32314830D01*
X65773000Y-32346000D01*
X64929200Y-32346000D01*
X64929200Y-32238164D01*
X64691831Y-32126259D01*
X64253945Y-32418811D01*
X63888928Y-32929126D01*
X62607443Y-32929126D01*
X62508138Y-32774802D01*
X62257508Y-32603554D01*
X61960000Y-32543307D01*
X60260000Y-32543307D01*
X59982067Y-32595604D01*
X59726802Y-32759862D01*
X59555554Y-33010492D01*
X59495307Y-33308000D01*
X59495307Y-35008000D01*
X59547604Y-35285933D01*
X59711862Y-35541198D01*
X59885158Y-35659606D01*
X59600447Y-36085707D01*
X59478654Y-36698000D01*
X59544008Y-37026556D01*
X58817282Y-37753282D01*
X58627605Y-38037152D01*
X58561000Y-38372000D01*
X58561000Y-47135563D01*
X58258482Y-47438082D01*
X58068805Y-47721952D01*
X58002200Y-48056800D01*
X56623000Y-48056800D01*
X56623000Y-30101000D01*
X80473000Y-30101000D01*
X80473000Y-98451000D01*
X80473000Y-98451000D01*
G37*
X80473000Y-98451000D02*
X76695640Y-98451000D01*
X77538205Y-97608435D01*
X77223512Y-97293742D01*
X77279748Y-96796008D01*
X77185597Y-96322679D01*
X76916294Y-96152301D01*
X76092594Y-96976000D01*
X76513323Y-97396729D01*
X75558729Y-98351323D01*
X75138000Y-97930594D01*
X74717271Y-98351323D01*
X73762677Y-97396729D01*
X74183406Y-96976000D01*
X73359706Y-96152301D01*
X73090403Y-96322679D01*
X72996252Y-97155992D01*
X73028436Y-97317794D01*
X72737795Y-97608435D01*
X73580360Y-98451000D01*
X64695640Y-98451000D01*
X65538205Y-97608435D01*
X65223512Y-97293742D01*
X65279748Y-96796008D01*
X65185597Y-96322679D01*
X64916294Y-96152301D01*
X64092594Y-96976000D01*
X64513323Y-97396729D01*
X63558729Y-98351323D01*
X63138000Y-97930594D01*
X62717271Y-98351323D01*
X61762677Y-97396729D01*
X62183406Y-96976000D01*
X61359706Y-96152301D01*
X61090403Y-96322679D01*
X60996252Y-97155992D01*
X61028436Y-97317794D01*
X60737795Y-97608435D01*
X61580360Y-98451000D01*
X56623000Y-98451000D01*
X56623000Y-95197706D01*
X62314301Y-95197706D01*
X63138000Y-96021406D01*
X63961699Y-95197706D01*
X63791321Y-94928403D01*
X62958008Y-94834252D01*
X62484679Y-94928403D01*
X62314301Y-95197706D01*
X56623000Y-95197706D01*
X56623000Y-92575040D01*
X66357738Y-92575040D01*
X66587138Y-93130229D01*
X66732536Y-93275882D01*
X66588630Y-93419537D01*
X66358262Y-93974325D01*
X66357738Y-94575040D01*
X66587138Y-95130229D01*
X67011537Y-95555370D01*
X67566325Y-95785738D01*
X68167040Y-95786262D01*
X68722229Y-95556862D01*
X68812481Y-95466767D01*
X69754634Y-95466767D01*
X69833534Y-95713179D01*
X70427247Y-95823619D01*
X70982466Y-95713179D01*
X71061366Y-95466767D01*
X70792305Y-95197706D01*
X74314301Y-95197706D01*
X75138000Y-96021406D01*
X75961699Y-95197706D01*
X75791321Y-94928403D01*
X74958008Y-94834252D01*
X74484679Y-94928403D01*
X74314301Y-95197706D01*
X70792305Y-95197706D01*
X70408000Y-94813401D01*
X69754634Y-95466767D01*
X68812481Y-95466767D01*
X69147370Y-95132463D01*
X69241978Y-94904621D01*
X69870599Y-94276000D01*
X69601899Y-94007300D01*
X69906454Y-93702744D01*
X70106325Y-93785738D01*
X70707040Y-93786262D01*
X70909436Y-93702634D01*
X71214102Y-94007300D01*
X70945401Y-94276000D01*
X71598767Y-94929366D01*
X71845179Y-94850466D01*
X71900911Y-94550859D01*
X72382839Y-94068931D01*
X71566765Y-93252857D01*
X71687370Y-93132463D01*
X71917738Y-92577675D01*
X71918262Y-91976960D01*
X71688862Y-91421771D01*
X71264463Y-90996630D01*
X70709675Y-90766262D01*
X70108960Y-90765738D01*
X69553771Y-90995138D01*
X69137647Y-91410536D01*
X68724463Y-90996630D01*
X68169675Y-90766262D01*
X67568960Y-90765738D01*
X67013771Y-90995138D01*
X66588630Y-91419537D01*
X66358262Y-91974325D01*
X66357738Y-92575040D01*
X56623000Y-92575040D01*
X56623000Y-87762569D01*
X62577696Y-87762569D01*
X62843557Y-88406001D01*
X63335410Y-88898713D01*
X63978376Y-89165696D01*
X64674569Y-89166304D01*
X65318001Y-88900443D01*
X65372086Y-88846452D01*
X68104655Y-88846452D01*
X68220759Y-89102448D01*
X68912358Y-89206455D01*
X69435241Y-89102448D01*
X69551345Y-88846452D01*
X68828000Y-88123107D01*
X68104655Y-88846452D01*
X65372086Y-88846452D01*
X65810713Y-88408590D01*
X66077696Y-87765624D01*
X66077927Y-87500358D01*
X67037545Y-87500358D01*
X67141552Y-88023241D01*
X67397548Y-88139345D01*
X68120893Y-87416000D01*
X69535107Y-87416000D01*
X70258452Y-88139345D01*
X70514448Y-88023241D01*
X70618455Y-87331642D01*
X70514448Y-86808759D01*
X70258452Y-86692655D01*
X69535107Y-87416000D01*
X68120893Y-87416000D01*
X67397548Y-86692655D01*
X67141552Y-86808759D01*
X67037545Y-87500358D01*
X66077927Y-87500358D01*
X66078304Y-87069431D01*
X65812443Y-86425999D01*
X65372760Y-85985548D01*
X68104655Y-85985548D01*
X68828000Y-86708893D01*
X69551345Y-85985548D01*
X69435241Y-85729552D01*
X68743642Y-85625545D01*
X68220759Y-85729552D01*
X68104655Y-85985548D01*
X65372760Y-85985548D01*
X65320590Y-85933287D01*
X64677624Y-85666304D01*
X63981431Y-85665696D01*
X63337999Y-85931557D01*
X62845287Y-86423410D01*
X62578304Y-87066376D01*
X62577696Y-87762569D01*
X56623000Y-87762569D01*
X56623000Y-48056800D01*
X58002200Y-48056800D01*
X58002200Y-83405200D01*
X58047004Y-83630446D01*
X58068805Y-83740048D01*
X58258482Y-84023918D01*
X58647836Y-84413272D01*
X58647818Y-84433942D01*
X58807334Y-84820000D01*
X59102446Y-85115628D01*
X59488226Y-85275818D01*
X59905942Y-85276182D01*
X60292000Y-85116666D01*
X60587628Y-84821554D01*
X60747818Y-84435774D01*
X60748182Y-84018058D01*
X60654980Y-83792493D01*
X60685000Y-83779350D01*
X60685000Y-82843000D01*
X61535000Y-82843000D01*
X61535000Y-83779350D01*
X61772374Y-83883272D01*
X62282689Y-83518255D01*
X62575241Y-83080369D01*
X62463336Y-82843000D01*
X61535000Y-82843000D01*
X60685000Y-82843000D01*
X60260000Y-82843000D01*
X60260000Y-81993000D01*
X60685000Y-81993000D01*
X60685000Y-80303000D01*
X61535000Y-80303000D01*
X61535000Y-81993000D01*
X62463336Y-81993000D01*
X62575241Y-81755631D01*
X62282689Y-81317745D01*
X62205550Y-81262569D01*
X62577696Y-81262569D01*
X62843557Y-81906001D01*
X63335410Y-82398713D01*
X63978376Y-82665696D01*
X64674569Y-82666304D01*
X65318001Y-82400443D01*
X65372086Y-82346452D01*
X68104655Y-82346452D01*
X68220759Y-82602448D01*
X68912358Y-82706455D01*
X69435241Y-82602448D01*
X69551345Y-82346452D01*
X68828000Y-81623107D01*
X68104655Y-82346452D01*
X65372086Y-82346452D01*
X65810713Y-81908590D01*
X66077696Y-81265624D01*
X66077927Y-81000358D01*
X67037545Y-81000358D01*
X67141552Y-81523241D01*
X67397548Y-81639345D01*
X68120893Y-80916000D01*
X69535107Y-80916000D01*
X70258452Y-81639345D01*
X70514448Y-81523241D01*
X70618455Y-80831642D01*
X70514448Y-80308759D01*
X70258452Y-80192655D01*
X69535107Y-80916000D01*
X68120893Y-80916000D01*
X67397548Y-80192655D01*
X67141552Y-80308759D01*
X67037545Y-81000358D01*
X66077927Y-81000358D01*
X66078304Y-80569431D01*
X65812443Y-79925999D01*
X65372760Y-79485548D01*
X68104655Y-79485548D01*
X68828000Y-80208893D01*
X69551345Y-79485548D01*
X69435241Y-79229552D01*
X68743642Y-79125545D01*
X68220759Y-79229552D01*
X68104655Y-79485548D01*
X65372760Y-79485548D01*
X65320590Y-79433287D01*
X64677624Y-79166304D01*
X63981431Y-79165696D01*
X63337999Y-79431557D01*
X62845287Y-79923410D01*
X62578304Y-80566376D01*
X62577696Y-81262569D01*
X62205550Y-81262569D01*
X62045376Y-81148000D01*
X62282689Y-80978255D01*
X62575241Y-80540369D01*
X62463336Y-80303000D01*
X61535000Y-80303000D01*
X60685000Y-80303000D01*
X60260000Y-80303000D01*
X60260000Y-79453000D01*
X60685000Y-79453000D01*
X60685000Y-79028000D01*
X61535000Y-79028000D01*
X61535000Y-79453000D01*
X62463336Y-79453000D01*
X62575241Y-79215631D01*
X62360002Y-78893466D01*
X62360002Y-78839528D01*
X62688226Y-78975818D01*
X63105942Y-78976182D01*
X63492000Y-78816666D01*
X63787628Y-78521554D01*
X63947818Y-78135774D01*
X63948182Y-77718058D01*
X63788666Y-77332000D01*
X63673000Y-77216132D01*
X63673000Y-76326000D01*
X63606395Y-75991152D01*
X63606395Y-75991151D01*
X63416718Y-75707281D01*
X62702538Y-74993101D01*
X62737167Y-74819009D01*
X62898000Y-74851000D01*
X63037844Y-74851000D01*
X63052446Y-74865628D01*
X63438226Y-75025818D01*
X63855942Y-75026182D01*
X64242000Y-74866666D01*
X64537628Y-74571554D01*
X64697818Y-74185774D01*
X64698182Y-73768058D01*
X64538666Y-73382000D01*
X64243554Y-73086372D01*
X63857774Y-72926182D01*
X63486000Y-72925858D01*
X63486000Y-72024002D01*
X63615397Y-71830346D01*
X63682002Y-71495498D01*
X63682002Y-70079934D01*
X64245718Y-69516219D01*
X64435395Y-69232349D01*
X64461863Y-69099282D01*
X64502000Y-68897500D01*
X64502000Y-67608936D01*
X65118140Y-66992797D01*
X65134718Y-66981720D01*
X65324395Y-66697850D01*
X65391000Y-66363002D01*
X65391000Y-63227436D01*
X67230219Y-61388218D01*
X67419895Y-61104348D01*
X67486500Y-60769500D01*
X67486500Y-58737500D01*
X67419895Y-58402652D01*
X67389057Y-58356500D01*
X67230219Y-58118782D01*
X66772664Y-57661228D01*
X66772682Y-57640558D01*
X66613166Y-57254500D01*
X66318054Y-56958872D01*
X66074090Y-56857569D01*
X66074182Y-56751558D01*
X65914666Y-56365500D01*
X65619554Y-56069872D01*
X65396086Y-55977080D01*
X65405628Y-55967554D01*
X65565818Y-55581774D01*
X65566182Y-55164058D01*
X65406666Y-54778000D01*
X65111554Y-54482372D01*
X64725774Y-54322182D01*
X64308058Y-54321818D01*
X63922000Y-54481334D01*
X63906307Y-54497000D01*
X62737567Y-54497000D01*
X62741346Y-54478000D01*
X62619553Y-53865707D01*
X62272717Y-53346629D01*
X62065244Y-53208000D01*
X62272717Y-53069371D01*
X62619553Y-52550293D01*
X62741346Y-51938000D01*
X62680280Y-51631000D01*
X65875564Y-51631000D01*
X66487836Y-52243273D01*
X66487818Y-52263942D01*
X66647334Y-52650000D01*
X66942446Y-52945628D01*
X67328226Y-53105818D01*
X67745942Y-53106182D01*
X68132000Y-52946666D01*
X68427628Y-52651554D01*
X68587818Y-52265774D01*
X68588182Y-51848058D01*
X68428666Y-51462000D01*
X68133554Y-51166372D01*
X67747774Y-51006182D01*
X67725599Y-51006163D01*
X66856718Y-50137282D01*
X66572848Y-49947605D01*
X66238000Y-49881000D01*
X62645271Y-49881000D01*
X62741346Y-49398000D01*
X62658718Y-48982600D01*
X62890400Y-48982600D01*
X63225248Y-48915995D01*
X63509118Y-48726318D01*
X63698795Y-48442448D01*
X63765400Y-48107600D01*
X63698795Y-47772752D01*
X63509118Y-47488882D01*
X63225248Y-47299205D01*
X62890400Y-47232600D01*
X62666833Y-47232600D01*
X62741346Y-46858000D01*
X62619553Y-46245707D01*
X62272717Y-45726629D01*
X62065244Y-45588000D01*
X62272717Y-45449371D01*
X62619553Y-44930293D01*
X62741346Y-44318000D01*
X62704825Y-44134396D01*
X62934626Y-44229818D01*
X63352342Y-44230182D01*
X63738400Y-44070666D01*
X64034028Y-43775554D01*
X64194218Y-43389774D01*
X64194582Y-42972058D01*
X64035066Y-42586000D01*
X63739954Y-42290372D01*
X63354174Y-42130182D01*
X62936458Y-42129818D01*
X62758376Y-42203400D01*
X62656728Y-42203400D01*
X62741346Y-41778000D01*
X62619553Y-41165707D01*
X62272717Y-40646629D01*
X62065244Y-40508000D01*
X62272717Y-40369371D01*
X62619553Y-39850293D01*
X62741346Y-39238000D01*
X62619553Y-38625707D01*
X62494382Y-38438374D01*
X65752728Y-38438374D01*
X66117745Y-38948689D01*
X66555631Y-39241241D01*
X66793000Y-39129336D01*
X66793000Y-38201000D01*
X65856650Y-38201000D01*
X65752728Y-38438374D01*
X62494382Y-38438374D01*
X62272717Y-38106629D01*
X62065244Y-37968000D01*
X62272717Y-37829371D01*
X62619553Y-37310293D01*
X62658672Y-37113626D01*
X65752728Y-37113626D01*
X65856650Y-37351000D01*
X66793000Y-37351000D01*
X66793000Y-36422664D01*
X66555631Y-36310759D01*
X66117745Y-36603311D01*
X65752728Y-37113626D01*
X62658672Y-37113626D01*
X62741346Y-36698000D01*
X62619553Y-36085707D01*
X62334109Y-35658509D01*
X62493198Y-35556138D01*
X62664446Y-35305508D01*
X62724693Y-35008000D01*
X62724693Y-34253874D01*
X63888928Y-34253874D01*
X64253945Y-34764189D01*
X64691831Y-35056741D01*
X64929200Y-34944836D01*
X64929200Y-34016500D01*
X63992850Y-34016500D01*
X63888928Y-34253874D01*
X62724693Y-34253874D01*
X62724693Y-33308000D01*
X62672396Y-33030067D01*
X62607443Y-32929126D01*
X63888928Y-32929126D01*
X63992850Y-33166500D01*
X64929200Y-33166500D01*
X64929200Y-32346000D01*
X65773000Y-32346000D01*
X65773000Y-34506000D01*
X65779200Y-34537170D01*
X65779200Y-34944836D01*
X65968820Y-35034230D01*
X66029282Y-35124718D01*
X66539282Y-35634718D01*
X66823152Y-35824395D01*
X67158000Y-35891000D01*
X67457345Y-35891000D01*
X67797390Y-36349878D01*
X67643000Y-36422664D01*
X67643000Y-37351000D01*
X68068000Y-37351000D01*
X68068000Y-38201000D01*
X67643000Y-38201000D01*
X67643000Y-39129336D01*
X67880369Y-39241241D01*
X68202534Y-39026002D01*
X68757261Y-39026002D01*
X69145707Y-39285553D01*
X69758000Y-39407346D01*
X70370293Y-39285553D01*
X70797491Y-39000109D01*
X70899862Y-39159198D01*
X71150492Y-39330446D01*
X71448000Y-39390693D01*
X73148000Y-39390693D01*
X73425933Y-39338396D01*
X73681198Y-39174138D01*
X73852446Y-38923508D01*
X73912693Y-38626000D01*
X73912693Y-37287843D01*
X73913940Y-37285826D01*
X73938862Y-37132321D01*
X73969200Y-36979800D01*
X73966130Y-36964365D01*
X73968652Y-36948830D01*
X73906387Y-35190728D01*
X73923000Y-35187602D01*
X73923000Y-35301000D01*
X73989380Y-35634718D01*
X73989605Y-35635848D01*
X74179282Y-35919718D01*
X74311281Y-36051718D01*
X74490405Y-36171405D01*
X74595152Y-36241395D01*
X74930000Y-36308000D01*
X76976000Y-36308000D01*
X76976000Y-37123000D01*
X76775000Y-37123000D01*
X76775000Y-37548000D01*
X75925000Y-37548000D01*
X75925000Y-37123000D01*
X74996664Y-37123000D01*
X74884759Y-37360369D01*
X75099998Y-37682534D01*
X75099998Y-38237261D01*
X74840447Y-38625707D01*
X74718654Y-39238000D01*
X74840447Y-39850293D01*
X75187283Y-40369371D01*
X75394756Y-40508000D01*
X75187283Y-40646629D01*
X74840447Y-41165707D01*
X74718654Y-41778000D01*
X74773945Y-42055967D01*
X73494566Y-43255130D01*
X73268164Y-43028728D01*
X73268182Y-43008058D01*
X73108666Y-42622000D01*
X72813554Y-42326372D01*
X72427774Y-42166182D01*
X72010058Y-42165818D01*
X71624000Y-42325334D01*
X71328372Y-42620446D01*
X71168182Y-43006226D01*
X71167818Y-43423942D01*
X71327334Y-43810000D01*
X71622446Y-44105628D01*
X72008226Y-44265818D01*
X72030401Y-44265837D01*
X72340500Y-44575936D01*
X72340500Y-47707063D01*
X69675782Y-50371782D01*
X69486105Y-50655652D01*
X69419500Y-50990500D01*
X69419500Y-51332954D01*
X69341372Y-51410946D01*
X69181182Y-51796726D01*
X69180818Y-52214442D01*
X69340334Y-52600500D01*
X69527128Y-52787621D01*
X69291436Y-53118588D01*
X69073120Y-53208794D01*
X68777492Y-53503906D01*
X68617302Y-53889686D01*
X68616938Y-54307402D01*
X68776454Y-54693460D01*
X69015790Y-54933215D01*
X69015718Y-55016062D01*
X69175234Y-55402120D01*
X69470346Y-55697748D01*
X69608509Y-55755118D01*
X69736574Y-56065060D01*
X70031686Y-56360688D01*
X70057272Y-56371312D01*
X70057118Y-56547682D01*
X70216634Y-56933740D01*
X70511746Y-57229368D01*
X70514489Y-57230507D01*
X70514318Y-57426522D01*
X70673834Y-57812580D01*
X70968946Y-58108208D01*
X71177465Y-58194793D01*
X71097500Y-58227834D01*
X70801872Y-58522946D01*
X70764879Y-58612034D01*
X70572554Y-58419372D01*
X70186774Y-58259182D01*
X69769058Y-58258818D01*
X69383000Y-58418334D01*
X69087372Y-58713446D01*
X69065189Y-58766869D01*
X69007058Y-58766818D01*
X68621000Y-58926334D01*
X68325372Y-59221446D01*
X68165182Y-59607226D01*
X68164818Y-60024942D01*
X68324334Y-60411000D01*
X68365186Y-60451923D01*
X68198372Y-60618446D01*
X68038182Y-61004226D01*
X68037818Y-61421942D01*
X68197334Y-61808000D01*
X68422651Y-62033711D01*
X68426978Y-62041302D01*
X68441410Y-62052502D01*
X68456562Y-62067681D01*
X68469282Y-62086718D01*
X68488152Y-62099327D01*
X68492446Y-62103628D01*
X68498108Y-62105979D01*
X68585888Y-62164632D01*
X68696688Y-62250624D01*
X69331688Y-62568124D01*
X69362011Y-62576428D01*
X69388152Y-62593895D01*
X69525704Y-62621256D01*
X69660972Y-62658299D01*
X69692165Y-62654367D01*
X69723000Y-62660500D01*
X70703433Y-62660500D01*
X70408172Y-62955246D01*
X70247982Y-63341026D01*
X70247618Y-63758742D01*
X70407134Y-64144800D01*
X70702246Y-64440428D01*
X71088026Y-64600618D01*
X71505742Y-64600982D01*
X71868242Y-64451200D01*
X72560964Y-64451200D01*
X73013600Y-64903836D01*
X73013600Y-66171464D01*
X72659600Y-66317734D01*
X72363972Y-66612846D01*
X72292407Y-66785193D01*
X71948400Y-66927334D01*
X71652772Y-67222446D01*
X71492582Y-67608226D01*
X71492218Y-68025942D01*
X71651734Y-68412000D01*
X71797332Y-68557853D01*
X71440400Y-68705334D01*
X71144772Y-69000446D01*
X70984582Y-69386226D01*
X70984218Y-69803942D01*
X71143734Y-70190000D01*
X71261000Y-70307471D01*
X71261000Y-70866000D01*
X71309256Y-71108600D01*
X71327605Y-71200848D01*
X71517282Y-71484718D01*
X72937400Y-72904837D01*
X72937400Y-76200000D01*
X72988800Y-76458405D01*
X73004005Y-76534848D01*
X73193682Y-76818718D01*
X74004200Y-77629236D01*
X74004200Y-80947200D01*
X74062312Y-81239350D01*
X74070805Y-81282048D01*
X74260482Y-81565918D01*
X74784008Y-82089444D01*
X74718654Y-82418000D01*
X74840447Y-83030293D01*
X75187283Y-83549371D01*
X75706361Y-83896207D01*
X76318654Y-84018000D01*
X76381346Y-84018000D01*
X76993639Y-83896207D01*
X77512717Y-83549371D01*
X77859553Y-83030293D01*
X77981346Y-82418000D01*
X77859553Y-81805707D01*
X77512717Y-81286629D01*
X77305244Y-81148000D01*
X77512717Y-81009371D01*
X77859553Y-80490293D01*
X77981346Y-79878000D01*
X77859553Y-79265707D01*
X77512717Y-78746629D01*
X77305244Y-78608000D01*
X77512717Y-78469371D01*
X77859553Y-77950293D01*
X77981346Y-77338000D01*
X77859553Y-76725707D01*
X77512717Y-76206629D01*
X77305244Y-76068000D01*
X77512717Y-75929371D01*
X77859553Y-75410293D01*
X77981346Y-74798000D01*
X77859553Y-74185707D01*
X77512717Y-73666629D01*
X77305244Y-73528000D01*
X77512717Y-73389371D01*
X77859553Y-72870293D01*
X77981346Y-72258000D01*
X77859553Y-71645707D01*
X77512717Y-71126629D01*
X77305244Y-70988000D01*
X77512717Y-70849371D01*
X77859553Y-70330293D01*
X77981346Y-69718000D01*
X77859553Y-69105707D01*
X77512717Y-68586629D01*
X77305244Y-68448000D01*
X77512717Y-68309371D01*
X77859553Y-67790293D01*
X77981346Y-67178000D01*
X77859553Y-66565707D01*
X77512717Y-66046629D01*
X77305244Y-65908000D01*
X77512717Y-65769371D01*
X77859553Y-65250293D01*
X77981346Y-64638000D01*
X77859553Y-64025707D01*
X77512717Y-63506629D01*
X77305244Y-63368000D01*
X77512717Y-63229371D01*
X77859553Y-62710293D01*
X77981346Y-62098000D01*
X77859553Y-61485707D01*
X77635620Y-61150567D01*
X77869826Y-61247818D01*
X78287542Y-61248182D01*
X78673600Y-61088666D01*
X78969228Y-60793554D01*
X79129418Y-60407774D01*
X79129596Y-60203494D01*
X79174395Y-60136448D01*
X79188107Y-60067514D01*
X79217362Y-60003610D01*
X79221097Y-59901660D01*
X79241000Y-59801600D01*
X79241000Y-53856099D01*
X79335942Y-53856182D01*
X79722000Y-53696666D01*
X80017628Y-53401554D01*
X80177818Y-53015774D01*
X80178182Y-52598058D01*
X80018666Y-52212000D01*
X79743000Y-51935852D01*
X79743000Y-35106000D01*
X79733030Y-35055877D01*
X79737144Y-35004937D01*
X79593000Y-33765299D01*
X79593000Y-32306000D01*
X79591752Y-32299727D01*
X79592909Y-32293441D01*
X79558505Y-32132582D01*
X79526395Y-31971152D01*
X79522842Y-31965835D01*
X79521505Y-31959583D01*
X79428131Y-31824091D01*
X79336718Y-31687282D01*
X79331403Y-31683730D01*
X79327774Y-31678465D01*
X78267774Y-30648465D01*
X78129643Y-30559009D01*
X77992848Y-30467605D01*
X77986578Y-30466358D01*
X77981211Y-30462882D01*
X77819402Y-30433105D01*
X77658000Y-30401000D01*
X68028000Y-30401000D01*
X67913610Y-30423753D01*
X67797278Y-30431967D01*
X67747609Y-30456773D01*
X67693152Y-30467605D01*
X67596181Y-30532399D01*
X67491843Y-30584508D01*
X66111843Y-31654508D01*
X66075444Y-31696437D01*
X66029282Y-31727282D01*
X65964490Y-31824249D01*
X65888033Y-31912323D01*
X65870451Y-31964987D01*
X65839605Y-32011152D01*
X65816852Y-32125542D01*
X65779922Y-32236162D01*
X65780036Y-32237770D01*
X65779200Y-32238164D01*
X65779200Y-32314830D01*
X65773000Y-32346000D01*
X64929200Y-32346000D01*
X64929200Y-32238164D01*
X64691831Y-32126259D01*
X64253945Y-32418811D01*
X63888928Y-32929126D01*
X62607443Y-32929126D01*
X62508138Y-32774802D01*
X62257508Y-32603554D01*
X61960000Y-32543307D01*
X60260000Y-32543307D01*
X59982067Y-32595604D01*
X59726802Y-32759862D01*
X59555554Y-33010492D01*
X59495307Y-33308000D01*
X59495307Y-35008000D01*
X59547604Y-35285933D01*
X59711862Y-35541198D01*
X59885158Y-35659606D01*
X59600447Y-36085707D01*
X59478654Y-36698000D01*
X59544008Y-37026556D01*
X58817282Y-37753282D01*
X58627605Y-38037152D01*
X58561000Y-38372000D01*
X58561000Y-47135563D01*
X58258482Y-47438082D01*
X58068805Y-47721952D01*
X58002200Y-48056800D01*
X56623000Y-48056800D01*
X56623000Y-30101000D01*
X80473000Y-30101000D01*
X80473000Y-98451000D01*
M02*
