M48
;DRILL file {KiCad 4.0.7} date 10/06/20 21:35:32
;FORMAT={-:-/ absolute / metric / decimal}
FMAT,2
METRIC,TZ
T1C0.400
T2C0.810
T3C1.000
T4C1.100
T5C2.300
%
G90
G05
M71
T1
X56.798Y-50.776
X56.798Y-53.276
X56.798Y-55.776
X56.798Y-65.776
X56.798Y-78.276
X56.798Y-86.276
X56.798Y-89.276
X56.798Y-92.776
X57.298Y-35.276
X57.298Y-38.776
X57.298Y-40.276
X57.298Y-42.276
X57.298Y-48.276
X57.298Y-58.276
X57.298Y-60.776
X57.298Y-63.276
X57.298Y-68.276
X57.298Y-70.776
X57.298Y-73.276
X57.298Y-76.276
X57.298Y-81.276
X57.298Y-83.776
X57.298Y-94.776
X57.798Y-32.276
X57.798Y-45.776
X58.039Y-53.34
X58.298Y-95.776
X58.798Y-31.276
X59.698Y-84.226
X60.046Y-53.238
X60.298Y-96.276
X60.798Y-31.276
X61.238Y-89.826
X62.898Y-77.926
X63.144Y-43.18
X63.298Y-30.776
X63.628Y-37.146
X63.648Y-73.976
X63.948Y-46.996
X64.098Y-71.176
X64.262Y-56.642
X64.308Y-52.431
X64.516Y-55.372
X65.024Y-56.959
X65.138Y-47.346
X65.298Y-98.276
X65.405Y-58.674
X65.698Y-69.226
X65.722Y-57.848
X65.786Y-52.451
X65.913Y-59.436
X66.248Y-79.776
X66.298Y-30.776
X66.648Y-75.226
X67.538Y-52.056
X67.691Y-55.245
X67.738Y-48.116
X68.298Y-98.276
X68.755Y-53.378
X68.938Y-49.496
X69.088Y-61.214
X69.215Y-59.817
X69.298Y-30.276
X69.667Y-54.099
X69.977Y-59.309
X70.066Y-54.808
X70.231Y-52.006
X70.627Y-55.471
X70.739Y-59.817
X71.107Y-56.34
X71.228Y-64.526
X71.238Y-65.866
X71.298Y-63.551
X71.338Y-48.626
X71.564Y-57.219
X71.691Y-59.118
X71.758Y-46.186
X71.788Y-40.796
X71.798Y-30.276
X71.798Y-97.776
X72.034Y-69.596
X72.038Y-84.616
X72.218Y-43.216
X72.542Y-67.818
X72.862Y-57.539
X72.89Y-55.024
X73.254Y-67.208
X73.728Y-84.136
X73.798Y-94.276
X74.298Y-30.276
X74.368Y-41.326
X76.298Y-30.276
X76.798Y-94.276
X77.216Y-53.188
X78.08Y-60.198
X78.798Y-30.776
X78.798Y-93.276
X79.128Y-52.806
X79.578Y-36.166
X79.798Y-32.776
X79.798Y-35.276
X79.798Y-38.276
X79.798Y-40.276
X79.798Y-42.776
X80.298Y-45.776
X80.298Y-48.276
X80.298Y-50.776
X80.298Y-55.776
X80.298Y-58.276
X80.298Y-60.776
X80.298Y-63.276
X80.298Y-66.276
X80.298Y-68.276
X80.298Y-70.776
X80.298Y-73.276
X80.298Y-75.776
X80.298Y-78.276
X80.298Y-80.776
X80.298Y-84.776
X80.298Y-87.776
X80.298Y-90.776
T2
X67.868Y-92.276
X67.868Y-94.276
X70.408Y-92.276
X70.408Y-94.276
T3
X61.11Y-34.158
X61.11Y-36.698
X61.11Y-39.238
X61.11Y-41.778
X61.11Y-44.318
X61.11Y-46.858
X61.11Y-49.398
X61.11Y-51.938
X61.11Y-54.478
X61.11Y-57.018
X61.11Y-59.558
X61.11Y-62.098
X61.11Y-64.638
X61.11Y-67.178
X61.11Y-69.718
X61.11Y-72.258
X61.11Y-74.798
X61.11Y-77.338
X61.11Y-79.878
X61.11Y-82.418
X65.354Y-33.591
X67.218Y-37.776
X67.894Y-33.591
X69.758Y-37.776
X70.434Y-33.591
X72.298Y-37.776
X72.974Y-33.591
X76.35Y-34.158
X76.35Y-36.698
X76.35Y-39.238
X76.35Y-41.778
X76.35Y-44.318
X76.35Y-46.858
X76.35Y-49.398
X76.35Y-51.938
X76.35Y-54.478
X76.35Y-57.018
X76.35Y-59.558
X76.35Y-62.098
X76.35Y-64.638
X76.35Y-67.178
X76.35Y-69.718
X76.35Y-72.258
X76.35Y-74.798
X76.35Y-77.338
X76.35Y-79.878
X76.35Y-82.418
T4
X64.328Y-80.916
X64.328Y-87.416
X68.828Y-80.916
X68.828Y-87.416
T5
X63.138Y-96.976
X75.138Y-96.976
T0
M30
