G04 #@! TF.FileFunction,Soldermask,Top*
%FSLAX46Y46*%
G04 Gerber Fmt 4.6, Leading zero omitted, Abs format (unit mm)*
G04 Created by KiCad (PCBNEW 4.0.7) date 10/06/20 21:35:31*
%MOMM*%
%LPD*%
G01*
G04 APERTURE LIST*
%ADD10C,0.100000*%
%ADD11R,2.100000X2.100000*%
%ADD12O,2.100000X2.100000*%
%ADD13C,2.400000*%
%ADD14R,0.650000X1.400000*%
%ADD15R,1.400000X0.650000*%
%ADD16C,1.920000*%
%ADD17C,3.100000*%
%ADD18R,1.650000X1.900000*%
%ADD19R,1.900000X1.650000*%
%ADD20R,1.700000X1.900000*%
%ADD21R,4.200000X2.400000*%
%ADD22R,1.900000X2.400000*%
%ADD23R,2.400000X2.800000*%
%ADD24R,1.400000X2.200000*%
G04 APERTURE END LIST*
D10*
D11*
X61110000Y-34158000D03*
D12*
X61110000Y-36698000D03*
X61110000Y-39238000D03*
X61110000Y-41778000D03*
X61110000Y-44318000D03*
X61110000Y-46858000D03*
X61110000Y-49398000D03*
X61110000Y-51938000D03*
X61110000Y-54478000D03*
X61110000Y-57018000D03*
X61110000Y-59558000D03*
X61110000Y-62098000D03*
X61110000Y-64638000D03*
X61110000Y-67178000D03*
X61110000Y-69718000D03*
X61110000Y-72258000D03*
X61110000Y-74798000D03*
X61110000Y-77338000D03*
X61110000Y-79878000D03*
X61110000Y-82418000D03*
D13*
X68828000Y-87416000D03*
X64328000Y-87416000D03*
X68828000Y-80916000D03*
X64328000Y-80916000D03*
D14*
X72584000Y-50942000D03*
X72084000Y-50942000D03*
X71584000Y-50942000D03*
X71084000Y-50942000D03*
X70584000Y-50942000D03*
X70084000Y-50942000D03*
X69584000Y-50942000D03*
X69084000Y-50942000D03*
X68584000Y-50942000D03*
X68084000Y-50942000D03*
X67584000Y-50942000D03*
X67084000Y-50942000D03*
X66584000Y-50942000D03*
X66084000Y-50942000D03*
X65584000Y-50942000D03*
X65084000Y-50942000D03*
D15*
X63134000Y-52892000D03*
X63134000Y-53392000D03*
X63134000Y-53892000D03*
X63134000Y-54392000D03*
X63134000Y-54892000D03*
X63134000Y-55392000D03*
X63134000Y-55892000D03*
X63134000Y-56392000D03*
X63134000Y-56892000D03*
X63134000Y-57392000D03*
X63134000Y-57892000D03*
X63134000Y-58392000D03*
X63134000Y-58892000D03*
X63134000Y-59392000D03*
X63134000Y-59892000D03*
X63134000Y-60392000D03*
D14*
X65084000Y-62342000D03*
X65584000Y-62342000D03*
X66084000Y-62342000D03*
X66584000Y-62342000D03*
X67084000Y-62342000D03*
X67584000Y-62342000D03*
X68084000Y-62342000D03*
X68584000Y-62342000D03*
X69084000Y-62342000D03*
X69584000Y-62342000D03*
X70084000Y-62342000D03*
X70584000Y-62342000D03*
X71084000Y-62342000D03*
X71584000Y-62342000D03*
X72084000Y-62342000D03*
X72584000Y-62342000D03*
D15*
X74534000Y-60392000D03*
X74534000Y-59892000D03*
X74534000Y-59392000D03*
X74534000Y-58892000D03*
X74534000Y-58392000D03*
X74534000Y-57892000D03*
X74534000Y-57392000D03*
X74534000Y-56892000D03*
X74534000Y-56392000D03*
X74534000Y-55892000D03*
X74534000Y-55392000D03*
X74534000Y-54892000D03*
X74534000Y-54392000D03*
X74534000Y-53892000D03*
X74534000Y-53392000D03*
X74534000Y-52892000D03*
D11*
X76350000Y-34158000D03*
D12*
X76350000Y-36698000D03*
X76350000Y-39238000D03*
X76350000Y-41778000D03*
X76350000Y-44318000D03*
X76350000Y-46858000D03*
X76350000Y-49398000D03*
X76350000Y-51938000D03*
X76350000Y-54478000D03*
X76350000Y-57018000D03*
X76350000Y-59558000D03*
X76350000Y-62098000D03*
X76350000Y-64638000D03*
X76350000Y-67178000D03*
X76350000Y-69718000D03*
X76350000Y-72258000D03*
X76350000Y-74798000D03*
X76350000Y-77338000D03*
X76350000Y-79878000D03*
X76350000Y-82418000D03*
D11*
X72974200Y-33591500D03*
D12*
X70434200Y-33591500D03*
X67894200Y-33591500D03*
X65354200Y-33591500D03*
D16*
X67868000Y-92276000D03*
X70408000Y-92276000D03*
X70408000Y-94276000D03*
X67868000Y-94276000D03*
D17*
X63138000Y-96976000D03*
X75138000Y-96976000D03*
D11*
X72298000Y-37776000D03*
D12*
X69758000Y-37776000D03*
X67218000Y-37776000D03*
D18*
X65848000Y-70376000D03*
X65848000Y-67876000D03*
D19*
X69988000Y-64976000D03*
X72488000Y-64976000D03*
D18*
X73518000Y-80456000D03*
X73518000Y-82956000D03*
D19*
X68838000Y-48356000D03*
X66338000Y-48356000D03*
D18*
X63998000Y-67576000D03*
X63998000Y-65076000D03*
X71998000Y-44816000D03*
X71998000Y-47316000D03*
X71488000Y-80486000D03*
X71488000Y-82986000D03*
X64098000Y-45686000D03*
X64098000Y-48186000D03*
D19*
X70498000Y-40826000D03*
X72998000Y-40826000D03*
D18*
X63938000Y-41256000D03*
X63938000Y-38756000D03*
X61918000Y-85976000D03*
X61918000Y-88476000D03*
D20*
X59928000Y-90986000D03*
X59928000Y-93686000D03*
X63948000Y-72526000D03*
X63948000Y-69826000D03*
X72808000Y-86056000D03*
X72808000Y-88756000D03*
X77058000Y-86086000D03*
X77058000Y-88786000D03*
X74968000Y-86086000D03*
X74968000Y-88786000D03*
X64098000Y-75376000D03*
X64098000Y-78076000D03*
X59828000Y-85856000D03*
X59828000Y-88556000D03*
D21*
X69148000Y-70676000D03*
D22*
X69148000Y-76976000D03*
X71448000Y-76976000D03*
X66848000Y-76976000D03*
D23*
X69878000Y-45126000D03*
X66178000Y-45126000D03*
D24*
X66248000Y-41026000D03*
X68748000Y-41026000D03*
M02*
